{
  "accessors": [
    {
      "bufferView": 2,
      "componentType": 5126,
      "count": 3115,
      "max": [
        0.5787699818611145,
        0.3125680088996887,
        0.588109016418457
      ],
      "min": [
        -0.5787709951400757,
        -0.7122849822044373,
        -0.588109016418457
      ],
      "type": "VEC3"
    },
    {
      "bufferView": 2,
      "byteOffset": 37380,
      "componentType": 5126,
      "count": 3115,
      "max": [
        1.0,
        1.0,
        1.0
      ],
      "min": [
        -1.0,
        -1.0,
        -1.0
      ],
      "type": "VEC3"
    },
    {
      "bufferView": 3,
      "componentType": 5126,
      "count": 3115,
      "max": [
        0.97260981798172,
        0.9999217391014099,
        0.8787581920623779,
        1.0
      ],
      "min": [
        -0.9992825388908386,
        -1.0,
        -0.9999838471412659,
        1.0
      ],
      "type": "VEC4"
    },
    {
      "bufferView": 1,
      "componentType": 5126,
      "count": 3115,
      "max": [
        0.9970890283584595,
        0.9153839945793152
      ],
      "min": [
        0.002911000046879053,
        0.002911000046879053
      ],
      "type": "VEC2"
    },
    {
      "bufferView": 0,
      "componentType": 5125,
      "count": 15288,
      "type": "SCALAR"
    },
    {
      "bufferView": 2,
      "byteOffset": 74760,
      "componentType": 5126,
      "count": 16153,
      "max": [
        0.9849519729614258,
        0.9863579869270325,
        0.9974390268325806
      ],
      "min": [
        -0.984952986240387,
        -0.7448070049285889,
        -0.9974390268325806
      ],
      "type": "VEC3"
    },
    {
      "bufferView": 2,
      "byteOffset": 268596,
      "componentType": 5126,
      "count": 16153,
      "max": [
        1.0,
        1.0,
        1.0
      ],
      "min": [
        -1.0,
        -1.0,
        -1.0
      ],
      "type": "VEC3"
    },
    {
      "bufferView": 3,
      "byteOffset": 49840,
      "componentType": 5126,
      "count": 16153,
      "max": [
        0.9973877668380737,
        0.9999184608459473,
        0.9666709303855896,
        1.0
      ],
      "min": [
        -0.9973868727684021,
        -1.0,
        -1.0,
        1.0
      ],
      "type": "VEC4"
    },
    {
      "bufferView": 1,
      "byteOffset": 24920,
      "componentType": 5126,
      "count": 16153,
      "max": [
        0.9873989820480347,
        0.9954789876937866
      ],
      "min": [
        0.004521000199019909,
        0.004521000199019909
      ],
      "type": "VEC2"
    },
    {
      "bufferView": 0,
      "byteOffset": 61152,
      "componentType": 5125,
      "count": 84648,
      "type": "SCALAR"
    },
    {
      "bufferView": 2,
      "byteOffset": 462432,
      "componentType": 5126,
      "count": 1950,
      "max": [
        1.03445303440094,
        1.0595860481262207,
        1.1465049982070923
      ],
      "min": [
        -1.03445303440094,
        -0.8087109923362732,
        -0.27151501178741455
      ],
      "type": "VEC3"
    },
    {
      "bufferView": 2,
      "byteOffset": 485832,
      "componentType": 5126,
      "count": 1950,
      "max": [
        0.9996772408485413,
        0.999971866607666,
        0.9999973773956299
      ],
      "min": [
        -0.9996772408485413,
        -0.9999958276748657,
        -0.9997355341911316
      ],
      "type": "VEC3"
    },
    {
      "bufferView": 3,
      "byteOffset": 308288,
      "componentType": 5126,
      "count": 1950,
      "max": [
        0.9999999403953552,
        0.9999848008155823,
        0.9999955296516418,
        1.0
      ],
      "min": [
        -0.9980180859565735,
        -0.9997279047966003,
        -0.9999409317970276,
        1.0
      ],
      "type": "VEC4"
    },
    {
      "bufferView": 1,
      "byteOffset": 154144,
      "componentType": 5126,
      "count": 1950,
      "max": [
        0.7098780274391174,
        0.9800390005111694
      ],
      "min": [
        0.024358000606298447,
        0.008847000077366829
      ],
      "type": "VEC2"
    },
    {
      "bufferView": 0,
      "byteOffset": 399744,
      "componentType": 5125,
      "count": 7632,
      "type": "SCALAR"
    }
  ],
  "asset": {
    "extras": {
      "author": "Zambur (https://sketchfab.com/Zambur)",
      "license": "CC-BY-4.0 (http://creativecommons.org/licenses/by/4.0/)",
      "source": "https://sketchfab.com/3d-models/mecanic-eye-805909c618624cb98091ab4f45393189",
      "title": "Mecanic Eye"
    },
    "generator": "Sketchfab-12.65.0",
    "version": "2.0"
  },
  "bufferViews": [
    {
      "buffer": 0,
      "byteLength": 430272,
      "name": "floatBufferViews",
      "target": 34963
    },
    {
      "buffer": 0,
      "byteLength": 169744,
      "byteOffset": 430272,
      "byteStride": 8,
      "name": "floatBufferViews",
      "target": 34962
    },
    {
      "buffer": 0,
      "byteLength": 509232,
      "byteOffset": 600016,
      "byteStride": 12,
      "name": "floatBufferViews",
      "target": 34962
    },
    {
      "buffer": 0,
      "byteLength": 339488,
      "byteOffset": 1109248,
      "byteStride": 16,
      "name": "floatBufferViews",
      "target": 34962
    }
  ],
  "buffers": [
    {
      "byteLength": 1448736,
      "uri": "scene.bin"
    }
  ],
  "images": [
    {
      "uri": "textures/Helmet_baseColor.jpeg"
    },
    {
      "uri": "textures/Helmet_metallicRoughness.png"
    },
    {
      "uri": "textures/Helmet_normal.png"
    },
    {
      "uri": "textures/OjoInterior_baseColor.jpeg"
    },
    {
      "uri": "textures/OjoInterior_metallicRoughness.png"
    },
    {
      "uri": "textures/OjoInterior_emissive.jpeg"
    },
    {
      "uri": "textures/OjoInterior_normal.png"
    },
    {
      "uri": "textures/OjosExterior_baseColor.jpeg"
    },
    {
      "uri": "textures/OjosExterior_metallicRoughness.png"
    },
    {
      "uri": "textures/OjosExterior_normal.png"
    }
  ],
  "materials": [
    {
      "doubleSided": true,
      "name": "Helmet",
      "normalTexture": {
        "index": 2
      },
      "occlusionTexture": {
        "index": 1
      },
      "pbrMetallicRoughness": {
        "baseColorTexture": {
          "index": 0
        },
        "metallicRoughnessTexture": {
          "index": 1
        }
      }
    },
    {
      "doubleSided": true,
      "emissiveFactor": [
        0.5643160717217226,
        0.5643160717217226,
        0.5643160717217226
      ],
      "emissiveTexture": {
        "index": 5
      },
      "name": "OjoInterior",
      "normalTexture": {
        "index": 6
      },
      "occlusionTexture": {
        "index": 4
      },
      "pbrMetallicRoughness": {
        "baseColorTexture": {
          "index": 3
        },
        "metallicRoughnessTexture": {
          "index": 4
        }
      }
    },
    {
      "doubleSided": true,
      "name": "OjosExterior",
      "normalTexture": {
        "index": 9
      },
      "occlusionTexture": {
        "index": 8
      },
      "pbrMetallicRoughness": {
        "baseColorTexture": {
          "index": 7
        },
        "metallicRoughnessTexture": {
          "index": 8
        }
      }
    }
  ],
  "meshes": [
    {
      "name": "Object_0",
      "primitives": [
        {
          "attributes": {
            "NORMAL": 1,
            "POSITION": 0,
            "TANGENT": 2,
            "TEXCOORD_0": 3
          },
          "indices": 4,
          "material": 1,
          "mode": 4
        }
      ]
    },
    {
      "name": "Object_1",
      "primitives": [
        {
          "attributes": {
            "NORMAL": 6,
            "POSITION": 5,
            "TANGENT": 7,
            "TEXCOORD_0": 8
          },
          "indices": 9,
          "material": 2,
          "mode": 4
        }
      ]
    },
    {
      "name": "Object_2",
      "primitives": [
        {
          "attributes": {
            "NORMAL": 11,
            "POSITION": 10,
            "TANGENT": 12,
            "TEXCOORD_0": 13
          },
          "indices": 14,
          "material": 0,
          "mode": 4
        }
      ]
    }
  ],
  "nodes": [
    {
      "children": [
        1
      ],
      "matrix": [
        1.0,
        0.0,
        0.0,
        0.0,
        0.0,
        2.220446049250313e-16,
        -1.0,
        0.0,
        0.0,
        1.0,
        2.220446049250313e-16,
        0.0,
        0.0,
        0.0,
        0.0,
        1.0
      ],
      "name": "Sketchfab_model"
    },
    {
      "children": [
        2,
        3,
        4
      ],
      "name": "MecanicEye.obj.cleaner.materialmerger.gles"
    },
    {
      "mesh": 0,
      "name": "Object_2"
    },
    {
      "mesh": 1,
      "name": "Object_3"
    },
    {
      "mesh": 2,
      "name": "Object_4"
    }
  ],
  "samplers": [
    {
      "magFilter": 9729,
      "minFilter": 9987,
      "wrapS": 10497,
      "wrapT": 10497
    }
  ],
  "scene": 0,
  "scenes": [
    {
      "name": "Sketchfab_Scene",
      "nodes": [
        0
      ]
    }
  ],
  "textures": [
    {
      "sampler": 0,
      "source": 0
    },
    {
      "sampler": 0,
      "source": 1
    },
    {
      "sampler": 0,
      "source": 2
    },
    {
      "sampler": 0,
      "source": 3
    },
    {
      "sampler": 0,
      "source": 4
    },
    {
      "sampler": 0,
      "source": 5
    },
    {
      "sampler": 0,
      "source": 6
    },
    {
      "sampler": 0,
      "source": 7
    },
    {
      "sampler": 0,
      "source": 8
    },
    {
      "sampler": 0,
      "source": 9
    }
  ]
}
